Kiss the Girls *1997*[DVD9][PAL][ENG, POL]

General information:
Country: USA
Release: 10 September 1997 (Deauville Film Festival)
Genre: Crime, Drama, Mystery, Thriller 
Director: Gary Fleder
Screenplay: David Klass, James Patterson (novel)
Original Music: Mark Isham 
Cinematography by:Aaron schneider 
Duration: 1h 49mn
Language: English, Polish, Czech, Hungarian, Turkish
Subtitles: English, Polish, Czech, Hungarian, Turkish, Lithuanian, Latvian, Estonian 
Rating: 7.5/10 - 5725 votes

Cast:
Morgan Freeman  ...  Dr. Alex Cross  
Ashley Judd  ...  Dr. Kate McTiernan  
Cary Elwes  ...  Det. Nick Ruskin  
Alex McArthur  ...  Det. Davey Sikes  
Tony Goldwyn  ...  Dr. William 'Will' Rudolph  
Jay O. Sanders  ...  FBI Agent Kyle Craig  
Bill Nunn  ...  Det. John Sampson  
Brian Cox  ...  Chief Hatfield, Durham P.D.  
Richard T. Jones  ...  Seth Samuel  
Roma Maffia  ...  Dr. Ruocco  
Jeremy Piven  ...  Henry Castillo, LAPD  
Gina Ravera  ...  Naomi Cross  
William Converse-Roberts  ...  Dr. Wick Sachs  
Helen Martin  ...  Nana Cross  
Tatyana Ali  ...  Janell Cross (as Tatyana M. Ali)  

Plot:
Police hunting for a serial killer are helped when a victim manages to escape for the first time. 

Specifications:
General
Format                           : MPEG-PS
Overall bit rate                 : 8 493 Kbps

Video
Format                           : MPEG Video
Format version                   : Version 2
Format profile                   : Main@Main
Format settings, BVOP            : Yes
Format settings, Matrix          : Default
Format settings, GOP             : M=3, N=12
Bit rate mode                    : Variable
Bit rate                         : 7 108 Kbps
Nominal bit rate                 : 9 800 Kbps
Width                            : 720 pixels
Height                           : 576 pixels
Display aspect ratio             : 16:9
Frame rate                       : 25.000 fps
Standard                         : PAL

Audio 1
Format                           : AC-3
Format/Info                      : Audio Coding 3
Mode extension                   : CM (complete main)
Bit rate mode                    : Constant
Bit rate                         : 448 Kbps
Channel(s)                       : 6 channels
Channel positions                : Front: L C R, Side: L R, LFE
Sampling rate                    : 48.0 KHz
Video delay                      : -296ms
Stream size                      : 54.0 MiB (5%)

Audio 2-5
Format                           : AC-3
Format/Info                      : Audio Coding 3
Format profile                   : Dolby Digital
Mode extension                   : CM (complete main)
Bit rate mode                    : Constant
Bit rate                         : 192 Kbps
Channel(s)                       : 2 channels
Channel positions                : Front: L R
Sampling rate                    : 48.0 KHz
Video delay                      : -232ms
Stream size                      : 23.1 MiB (2%)

Text 
Format                           : RLE
Format/Info                      : Run-length encoding
